<?xml version="1.0" standalone="no"?>
<!DOCTYPE svg PUBLIC "-//W3C//DTD SVG 20010904//EN"
 "http://www.w3.org/TR/2001/REC-SVG-20010904/DTD/svg10.dtd">
<svg version="1.0" xmlns="http://www.w3.org/2000/svg"
 width="512.000000pt" height="512.000000pt" viewBox="0 0 512.000000 512.000000"
 preserveAspectRatio="xMidYMid meet">

<g transform="translate(0.000000,512.000000) scale(0.100000,-0.100000)"
fill="#000000" stroke="none">
<path d="M2315 5089 c-1061 -102 -1959 -877 -2218 -1914 -58 -232 -71 -349
-71 -615 0 -243 10 -351 55 -555 78 -355 253 -724 481 -1012 86 -109 276 -301
381 -387 l88 -71 -283 -5 c-310 -5 -320 -7 -390 -69 -73 -64 -103 -194 -66
-282 22 -50 74 -106 122 -132 41 -22 43 -22 621 -22 546 0 582 1 615 19 49 26
98 74 123 121 22 39 22 48 25 592 2 365 -1 566 -8 592 -43 159 -215 237 -361
164 -60 -31 -112 -92 -129 -151 -5 -20 -10 -115 -10 -210 0 -202 10 -196 -122
-72 -278 260 -479 598 -573 965 -242 944 205 1914 1080 2341 259 126 495 186
803 203 130 7 153 11 199 34 86 44 133 124 133 225 0 108 -78 214 -178 242
-43 12 -187 11 -317 -1z"/>
<path d="M3510 5091 c-69 -22 -130 -73 -166 -141 -18 -33 -19 -71 -22 -580 -2
-373 0 -561 8 -595 54 -245 404 -263 485 -26 11 33 15 89 15 218 0 204 -10
197 122 73 832 -778 853 -2097 46 -2911 -363 -367 -899 -598 -1386 -599 -96 0
-147 -14 -203 -55 -131 -95 -132 -304 -1 -402 64 -48 107 -56 264 -49 1119 49
2080 835 2351 1921 58 232 71 349 71 615 0 270 -13 384 -74 625 -108 431 -320
810 -635 1134 -66 68 -160 155 -208 195 l-88 71 283 5 c230 4 290 8 318 21 94
43 152 132 153 234 0 33 -7 76 -15 96 -22 50 -74 106 -122 132 -41 22 -45 22
-606 24 -311 1 -576 -2 -590 -6z"/>
</g>
</svg>
