<?xml version="1.0" standalone="no"?>
<!DOCTYPE svg PUBLIC "-//W3C//DTD SVG 20010904//EN"
 "http://www.w3.org/TR/2001/REC-SVG-20010904/DTD/svg10.dtd">
<svg version="1.0" xmlns="http://www.w3.org/2000/svg"
 width="512.000000pt" height="512.000000pt" viewBox="0 0 512.000000 512.000000"
 preserveAspectRatio="xMidYMid meet">

<g transform="translate(0.000000,512.000000) scale(0.100000,-0.100000)"
fill="#000000" stroke="none">
<path d="M1765 5091 c-138 -44 -267 -97 -408 -168 -112 -57 -130 -70 -152
-107 -31 -53 -32 -103 -4 -182 45 -130 35 -294 -28 -424 -37 -76 -189 -228
-265 -263 -127 -60 -257 -72 -383 -36 -202 59 -238 38 -351 -196 -74 -154
-174 -428 -174 -478 0 -33 24 -94 47 -120 10 -10 51 -36 93 -58 101 -53 160
-106 214 -193 114 -182 114 -430 0 -612 -54 -88 -113 -140 -216 -194 -118 -62
-151 -118 -128 -219 24 -106 92 -286 170 -448 74 -152 82 -163 124 -188 54
-31 104 -31 221 4 126 36 252 25 381 -35 82 -38 230 -187 268 -268 62 -135 72
-290 27 -420 -35 -101 -26 -160 36 -218 66 -63 560 -268 646 -268 33 0 94 24
120 47 10 10 37 53 59 97 122 233 384 345 652 276 150 -38 268 -134 346 -280
71 -134 127 -159 264 -120 160 45 471 179 557 241 61 43 72 125 34 254 -24 80
-24 212 -1 289 60 201 211 351 406 401 83 22 217 21 290 -1 98 -30 154 -30
205 1 43 25 51 37 125 188 79 161 180 437 180 490 0 33 -24 94 -47 120 -10 10
-53 37 -97 60 -186 97 -296 281 -296 497 0 216 110 400 296 497 44 23 87 50
97 60 23 26 47 87 47 120 0 86 -205 580 -268 646 -58 62 -118 72 -218 36 -128
-46 -294 -35 -424 28 -76 37 -228 189 -263 265 -60 127 -72 257 -36 383 58
200 37 238 -186 346 -154 74 -233 106 -374 150 -107 33 -128 35 -178 14 -53
-23 -69 -40 -114 -125 -53 -101 -106 -160 -193 -214 -223 -140 -531 -105 -712
79 -27 29 -69 88 -92 131 -46 89 -61 106 -115 129 -50 21 -77 18 -182 -14z
m152 -204 c68 -130 172 -232 311 -302 86 -44 165 -64 278 -72 309 -21 571 123
704 387 12 25 23 46 24 47 3 3 141 -42 221 -72 90 -34 315 -144 315 -154 0 -4
-9 -34 -21 -67 -26 -76 -36 -227 -20 -320 27 -152 97 -278 223 -400 153 -148
270 -201 468 -211 99 -5 128 -2 200 17 47 12 92 22 100 23 22 3 129 -220 184
-386 26 -76 46 -141 44 -142 -2 -1 -26 -14 -53 -28 -255 -128 -402 -399 -381
-703 8 -114 28 -191 71 -277 70 -138 168 -239 300 -308 33 -18 61 -33 62 -34
2 -1 -13 -51 -33 -111 -41 -122 -98 -256 -152 -357 -31 -57 -40 -67 -57 -62
-114 33 -150 38 -245 38 -204 0 -366 -69 -515 -218 -104 -103 -162 -203 -195
-331 -27 -105 -27 -263 0 -369 11 -43 20 -80 20 -82 0 -6 -202 -104 -278 -134
-81 -32 -254 -90 -257 -86 -1 1 -16 29 -34 62 -89 171 -253 301 -441 352 -90
24 -310 24 -400 0 -188 -51 -352 -181 -441 -352 -18 -33 -33 -61 -34 -63 -1
-1 -62 18 -136 44 -170 58 -402 171 -395 191 34 87 41 135 40 268 0 132 -2
145 -32 224 -43 114 -98 195 -196 289 -205 197 -475 266 -714 182 -31 -11 -57
-20 -58 -20 -6 0 -71 128 -109 215 -40 92 -118 315 -113 320 2 2 23 13 48 25
133 67 249 182 314 314 49 98 67 173 73 301 15 304 -126 553 -387 685 -25 12
-46 24 -48 25 -1 1 18 62 44 136 44 128 168 399 183 399 4 0 34 -10 66 -22 52
-19 80 -22 205 -22 139 0 149 1 229 32 116 44 195 98 293 201 94 98 138 166
176 273 23 66 26 87 26 218 0 123 -3 155 -22 210 l-22 65 23 17 c37 29 245
120 377 165 69 23 127 42 130 42 3 1 20 -27 37 -62z"/>
<path d="M2490 4093 c-731 -31 -1348 -593 -1450 -1320 -14 -106 -14 -320 0
-426 83 -602 522 -1101 1114 -1267 240 -67 548 -69 794 -6 528 137 961 570
1098 1098 47 183 60 446 31 623 -129 780 -803 1332 -1587 1298z m265 -184
c500 -65 940 -435 1100 -923 46 -141 66 -270 66 -426 0 -370 -140 -707 -401
-966 -205 -204 -478 -341 -760 -384 -96 -14 -306 -14 -395 0 -579 92 -1020
509 -1142 1080 -25 120 -25 420 0 540 74 345 264 638 546 841 282 202 626 285
986 238z"/>
<path d="M2409 3401 c-217 -40 -432 -182 -554 -365 -316 -475 -95 -1110 448
-1288 99 -32 107 -33 262 -32 147 0 167 3 245 28 275 90 476 290 566 566 26
79 28 96 28 250 0 154 -2 171 -28 250 -91 276 -294 479 -566 565 -71 23 -107
28 -220 31 -74 1 -156 -1 -181 -5z m366 -195 c205 -70 356 -219 429 -425 29
-80 31 -95 31 -221 0 -122 -3 -143 -28 -215 -73 -207 -223 -358 -426 -428
-322 -112 -677 33 -827 338 -99 201 -99 409 0 610 89 180 239 302 439 356 107
28 273 22 382 -15z"/>
</g>
</svg>
