<?xml version="1.0" standalone="no"?>
<!DOCTYPE svg PUBLIC "-//W3C//DTD SVG 20010904//EN"
 "http://www.w3.org/TR/2001/REC-SVG-20010904/DTD/svg10.dtd">
<svg version="1.0" xmlns="http://www.w3.org/2000/svg"
 width="512.000000pt" height="512.000000pt" viewBox="0 0 512.000000 512.000000"
 preserveAspectRatio="xMidYMid meet">

<g transform="translate(0.000000,512.000000) scale(0.100000,-0.100000)"
fill="#000000" stroke="none">
<path d="M2347 5110 c-788 -71 -1482 -482 -1917 -1137 -225 -339 -352 -681
-411 -1113 -22 -154 -16 -496 10 -669 111 -730 508 -1355 1118 -1761 339 -225
681 -352 1113 -411 154 -22 496 -16 669 10 730 111 1355 508 1761 1118 225
339 352 681 411 1113 22 154 16 496 -10 669 -111 730 -508 1355 -1118 1761
-330 219 -669 347 -1073 405 -131 19 -423 27 -553 15z m-657 -1010 c69 -58
180 -159 247 -225 113 -111 125 -127 167 -215 56 -120 107 -277 147 -450 37
-161 81 -255 173 -362 99 -116 137 -142 363 -254 320 -157 473 -269 604 -442
97 -128 176 -327 203 -512 9 -65 16 -86 29 -88 9 -2 46 11 81 28 102 48 136
108 136 234 0 89 -24 182 -90 361 -128 343 -170 526 -170 740 0 180 34 281
122 367 70 68 138 91 253 86 78 -4 101 -10 160 -39 84 -41 115 -80 115 -147 0
-59 -31 -109 -84 -133 -53 -24 -73 -24 -141 2 -76 28 -97 23 -113 -26 -22 -64
-9 -245 28 -389 37 -145 49 -180 170 -506 31 -81 53 -213 54 -315 1 -174 -45
-296 -154 -404 -69 -70 -175 -125 -297 -154 -85 -20 -93 -24 -105 -52 -46
-117 -148 -206 -296 -259 l-87 -31 -635 -3 c-663 -3 -699 -1 -720 39 -16 28 4
86 43 127 47 49 105 62 276 62 l146 0 -80 44 c-105 57 -196 141 -231 212 -35
71 -42 164 -20 257 64 271 275 406 578 368 55 -7 107 -14 116 -17 9 -2 1 3
-18 12 -57 27 -169 54 -250 60 -89 7 -189 -13 -262 -53 -62 -34 -148 -125
-183 -192 -17 -35 -58 -183 -116 -429 -49 -206 -95 -384 -101 -396 -16 -31
-59 -76 -90 -92 -21 -11 -75 -14 -232 -14 -202 0 -205 0 -233 24 -27 23 -27
25 -15 71 18 69 38 89 135 141 142 76 219 178 220 294 1 58 -11 90 -76 206
-50 88 -85 182 -109 287 -27 122 -20 298 17 477 35 167 44 336 21 414 -37 126
-88 182 -232 251 -90 43 -120 64 -162 109 -66 73 -94 145 -90 234 l3 64 66 17
c96 24 138 57 202 154 40 61 70 93 105 116 54 35 156 77 208 87 l34 6 0 62 c0
33 3 118 7 188 5 115 8 127 22 116 9 -7 72 -60 141 -118z"/>
</g>
</svg>
